<?xml version="1.0" standalone="no"?>
<!DOCTYPE svg PUBLIC "-//W3C//DTD SVG 20010904//EN"
 "http://www.w3.org/TR/2001/REC-SVG-20010904/DTD/svg10.dtd">
<svg version="1.0" xmlns="http://www.w3.org/2000/svg"
 width="1024.000000pt" height="1024.000000pt" viewBox="0 0 1024.000000 1024.000000"
 preserveAspectRatio="xMidYMid meet">

<g transform="translate(0.000000,1024.000000) scale(0.100000,-0.100000)"
fill="#000000" stroke="none">
<path d="M2912 8015 c-212 -46 -394 -220 -447 -430 -13 -52 -15 -248 -15
-1530 0 -1294 2 -1477 15 -1516 35 -102 126 -164 205 -140 82 24 74 -124 80
1606 l5 1540 31 50 c39 64 114 121 177 135 29 6 245 10 561 10 436 0 520 -2
565 -16 51 -15 54 -15 99 8 76 38 107 102 90 183 -11 47 -40 82 -85 101 -47
20 -1188 19 -1281 -1z"/>
<path d="M5365 8023 c-31 -8 -55 -34 -55 -58 0 -16 27 -44 92 -99 149 -123 55
-110 893 -116 l730 -5 56 -28 c66 -32 132 -99 162 -165 l22 -47 5 -1267 5
-1266 31 -39 c35 -43 92 -67 136 -58 42 10 94 64 107 112 8 30 11 394 9 1300
l-3 1258 -27 75 c-54 146 -157 265 -290 335 -140 74 -70 69 -1008 71 -465 1
-854 0 -865 -3z"/>
<path d="M5932 7485 c-91 -16 -225 -79 -352 -164 -102 -69 -142 -100 -290
-230 -128 -112 -144 -122 -178 -106 -15 7 -87 15 -162 19 -74 3 -205 10 -290
16 -85 5 -276 17 -425 25 -148 9 -285 18 -305 20 -105 15 -571 34 -628 25
-133 -19 -245 -98 -302 -214 -86 -176 -58 -365 75 -505 30 -32 52 -60 49 -63
-3 -3 1 -5 8 -5 7 1 47 -16 88 -38 41 -21 113 -56 160 -76 68 -29 84 -40 82
-54 -3 -16 -1 -17 11 -7 12 10 23 10 53 -2 60 -21 267 -118 284 -131 8 -7 73
-40 143 -74 89 -42 126 -65 121 -74 -4 -6 -33 -41 -64 -77 -31 -36 -88 -106
-128 -156 -40 -51 -78 -94 -85 -97 -7 -3 -76 -1 -153 4 -380 23 -405 23 -460
2 -111 -43 -174 -122 -193 -243 -18 -109 15 -212 93 -290 23 -22 88 -74 146
-114 l105 -73 0 -184 c0 -167 2 -187 20 -214 26 -39 53 -63 91 -80 45 -20 177
-21 252 -1 35 9 73 14 84 10 14 -4 18 -2 14 5 -4 6 -1 11 8 11 8 0 22 -18 32
-40 10 -21 21 -37 25 -35 4 3 33 -28 65 -68 33 -39 61 -74 64 -77 33 -33 98
-119 93 -123 -5 -2 -2 -2 5 -1 16 4 77 -33 63 -37 -15 -5 71 -13 154 -13 152
-1 264 97 265 232 0 36 4 51 11 46 7 -4 7 2 -1 17 -11 20 -56 342 -74 529 -4
36 -8 74 -9 84 -1 14 24 39 88 88 50 37 95 66 102 63 8 -2 10 2 6 12 -5 13 -2
15 11 10 9 -4 15 -3 11 2 -3 5 14 25 37 45 l43 35 17 -22 c13 -16 18 -18 18
-6 0 8 -5 20 -12 27 -7 7 -8 12 -2 12 17 0 116 -149 108 -163 -4 -6 -4 -9 1
-5 11 11 225 -284 225 -310 0 -6 -33 -26 -72 -45 -122 -59 -242 -179 -301
-301 -56 -116 -57 -133 -57 -773 0 -323 0 -600 0 -615 l0 -28 -361 0 -361 0 7
61 7 61 -32 -23 c-29 -22 -43 -24 -158 -27 -169 -3 -167 -3 -168 -49 0 -34
-48 -160 -65 -173 -3 -3 -14 -19 -23 -37 -25 -49 -144 -167 -213 -211 -34 -21
-94 -49 -135 -61 -103 -32 -102 -31 -109 -95 -9 -79 -57 -126 -129 -126 -71 0
-116 44 -132 127 l-11 60 -56 18 c-170 53 -308 162 -404 320 -37 61 -77 163
-77 197 0 11 -16 40 -35 65 -52 68 -49 137 10 203 12 14 27 51 34 82 7 32 17
60 22 63 5 4 9 14 9 24 0 20 86 148 134 200 17 18 55 51 85 73 87 66 261 138
261 109 0 -6 4 -11 8 -11 4 0 9 19 10 43 4 64 21 117 46 142 28 28 83 45 120
38 43 -9 93 -63 101 -108 13 -83 12 -82 56 -89 117 -19 301 -144 385 -262 50
-69 97 -168 115 -238 l11 -46 130 0 c132 0 153 -5 197 -44 23 -20 23 -20 18
-1 -4 11 -14 56 -22 100 -67 334 -318 634 -638 764 -431 176 -938 18 -1220
-380 -85 -121 -137 -255 -162 -419 -19 -120 -19 -180 0 -302 33 -220 133 -414
301 -582 115 -115 284 -214 449 -262 129 -37 312 -44 446 -16 270 56 513 219
664 446 l57 86 421 0 422 0 27 -73 c59 -155 176 -285 320 -356 155 -76 65 -72
1409 -69 l1204 3 67 26 c191 74 318 197 400 387 l33 77 3 760 c3 747 2 761
-18 830 -68 227 -267 407 -498 451 -46 9 -141 14 -253 14 l-179 0 0 139 c0 76
-5 162 -10 191 -20 105 -72 186 -171 266 -53 43 -91 47 -558 53 l-445 6 -15
65 c-18 73 -19 89 -8 108 5 7 3 12 -6 12 -15 0 -43 124 -78 345 -10 66 -26
156 -35 200 -8 44 -16 92 -16 108 -1 15 -5 27 -10 27 -4 0 -8 5 -8 11 0 6 7 9
14 6 9 -4 13 -1 10 6 -6 16 126 153 145 150 10 -2 11 0 4 3 -18 8 -16 27 1 21
9 -4 13 -1 11 6 -3 7 16 35 41 62 25 28 40 40 35 28 -16 -32 -13 -42 3 -13 8
14 12 28 10 32 -3 4 13 34 36 67 22 33 40 65 40 70 0 6 3 11 8 11 4 0 15 14
25 31 10 18 20 29 23 26 3 -3 -2 -18 -11 -34 l-17 -28 21 24 c14 15 19 31 15
44 -4 13 -2 17 5 13 7 -5 9 -1 5 9 -4 8 0 25 8 38 8 12 25 48 37 79 13 32 27
56 31 53 5 -3 12 0 16 6 4 8 3 9 -4 5 -13 -8 -17 26 -5 37 13 14 15 187 3 240
-26 110 -95 203 -192 260 -36 21 -169 59 -195 56 -4 0 -41 -7 -81 -14z m157
-332 c20 -23 23 -35 19 -87 -12 -190 -250 -498 -848 -1096 -415 -414 -712
-681 -1017 -914 l-63 -47 0 -63 c0 -34 16 -185 35 -336 20 -151 34 -282 33
-291 -2 -10 -61 55 -152 168 -81 101 -155 187 -163 190 -8 3 -84 -16 -169 -42
-86 -26 -158 -44 -161 -41 -3 3 8 74 26 158 17 84 31 162 31 173 0 15 -49 55
-180 148 -154 109 -180 131 -180 153 l0 26 93 -7 c50 -3 172 -13 270 -21 98
-8 198 -14 222 -14 l43 0 137 168 c261 318 422 494 925 1007 439 449 570 569
741 684 195 131 296 155 358 84z m-2449 -363 c74 -5 302 -19 505 -30 204 -11
429 -25 500 -30 72 -6 161 -10 198 -10 38 0 67 -4 65 -9 -1 -5 -129 -138 -283
-296 -154 -157 -284 -293 -288 -301 -16 -28 -7 -32 -662 270 -415 192 -425
199 -425 292 0 50 3 59 34 90 34 34 34 34 128 34 51 0 154 -4 228 -10z m2012
-961 c9 -52 46 -251 83 -444 147 -771 166 -880 161 -920 -12 -96 -134 -126
-211 -52 -34 33 -635 926 -635 944 0 5 64 72 142 149 78 76 205 203 282 281
78 78 146 141 151 139 6 -1 18 -45 27 -97z m1228 -849 c14 -14 20 -33 19 -62
0 -24 -2 -38 -5 -33 -2 6 -106 9 -291 7 -157 -1 -290 1 -294 5 -4 4 -9 24 -10
43 -2 19 -7 41 -12 48 -8 9 51 12 282 12 278 0 292 -1 311 -20z m-735 0 c-3
-5 0 -10 7 -10 10 0 10 -2 -1 -9 -10 -6 -11 -13 -2 -29 13 -25 15 -70 2 -56
-15 15 -25 114 -11 114 6 0 8 -4 5 -10z m-761 -676 c21 -32 67 -87 103 -121
38 -36 56 -59 45 -56 -15 4 -24 -3 -36 -25 -14 -28 -13 -42 5 -42 5 0 6 8 2
18 -5 13 -3 14 6 6 9 -8 22 -9 46 -2 39 12 125 2 126 -15 1 -16 1 -1359 0
-1524 l-1 -133 -202 0 c-231 0 -251 5 -332 80 -51 47 -100 125 -90 142 4 6 3
8 -3 5 -6 -4 -15 16 -21 46 -15 67 -16 1295 -2 1398 19 130 120 245 243 275
29 7 57 11 62 10 6 -1 27 -29 49 -62z m1573 -917 c2 -795 0 -969 -11 -973 -7
-3 -225 -6 -485 -7 l-471 -2 0 838 0 837 78 0 c42 0 88 -6 101 -13 36 -18 62
-59 68 -107 l6 -43 23 48 c34 70 39 151 16 265 -11 52 -23 103 -27 113 -7 16
12 17 346 15 l354 -3 2 -968z m752 944 c49 -25 133 -107 156 -151 45 -87 45
-78 45 -789 0 -666 -4 -762 -33 -744 -6 3 -7 1 -3 -5 15 -25 -46 -111 -122
-171 -70 -55 -97 -60 -304 -61 l-188 0 0 976 0 976 203 -4 c186 -4 205 -6 246
-27z"/>
<path d="M5376 4253 c-6 -14 -5 -15 5 -6 7 7 10 15 7 18 -3 3 -9 -2 -12 -12z"/>
<path d="M5170 4256 c0 -2 7 -7 16 -10 8 -3 12 -2 9 4 -6 10 -25 14 -25 6z"/>
<path d="M5360 4181 c0 -16 6 -31 15 -35 8 -3 15 -12 15 -19 0 -27 56 -62 78
-48 19 11 2 53 -19 48 -13 -4 -22 3 -31 23 -7 16 -17 26 -25 23 -12 -5 -18 8
-14 30 0 4 -3 7 -9 7 -5 0 -10 -13 -10 -29z"/>
<path d="M5446 4172 c-2 -4 4 -8 14 -8 10 0 16 4 14 8 -3 4 -9 8 -14 8 -5 0
-11 -4 -14 -8z"/>
<path d="M5460 4061 c0 -5 7 -11 14 -14 10 -4 13 -1 9 9 -6 15 -23 19 -23 5z"/>
<path d="M5450 2741 c0 -11 4 -22 9 -25 4 -3 6 6 3 19 -5 30 -12 33 -12 6z"/>
<path d="M5480 2686 c0 -2 8 -10 18 -17 15 -13 16 -12 3 4 -13 16 -21 21 -21
13z"/>
<path d="M6241 2784 c0 -11 3 -14 6 -6 3 7 2 16 -1 19 -3 4 -6 -2 -5 -13z"/>
<path d="M6225 2709 c-4 -6 -5 -12 -2 -15 2 -3 7 2 10 11 7 17 1 20 -8 4z"/>
<path d="M6735 2690 c10 -11 20 -20 23 -20 3 0 -3 9 -13 20 -10 11 -20 20 -23
20 -3 0 3 -9 13 -20z"/>
<path d="M7506 4067 c3 -10 9 -15 12 -12 3 3 0 11 -7 18 -10 9 -11 8 -5 -6z"/>
<path d="M7501 3944 c0 -11 3 -14 6 -6 3 7 2 16 -1 19 -3 4 -6 -2 -5 -13z"/>
<path d="M7460 2891 c0 -6 4 -13 10 -16 6 -3 7 1 4 9 -7 18 -14 21 -14 7z"/>
<path d="M6426 6915 c4 -8 10 -15 15 -15 4 0 6 7 3 15 -4 8 -10 15 -15 15 -4
0 -6 -7 -3 -15z"/>
<path d="M6351 6789 c-13 -39 -14 -46 -2 -33 9 10 24 64 17 64 -2 0 -9 -14
-15 -31z"/>
<path d="M6378 6770 c-3 -16 -1 -30 4 -30 4 0 8 14 8 30 0 17 -2 30 -4 30 -2
0 -6 -13 -8 -30z"/>
<path d="M6226 6575 c-9 -26 -7 -32 5 -12 6 10 9 21 6 23 -2 3 -7 -2 -11 -11z"/>
<path d="M3153 6273 c9 -9 20 -13 24 -9 4 4 1 11 -7 16 -25 16 -35 11 -17 -7z"/>
<path d="M3200 6250 c8 -5 20 -10 25 -10 6 0 3 5 -5 10 -8 5 -19 10 -25 10 -5
0 -3 -5 5 -10z"/>
<path d="M3755 5949 c-4 -5 -18 -15 -32 -20 -14 -5 -23 -12 -20 -15 7 -8 67
24 67 36 0 13 -7 13 -15 -1z"/>
<path d="M3850 5950 c8 -5 20 -10 25 -10 6 0 3 5 -5 10 -8 5 -19 10 -25 10 -5
0 -3 -5 5 -10z"/>
<path d="M4760 5078 c-19 -18 -27 -29 -17 -25 10 4 28 2 40 -4 20 -9 20 -9 5
4 -21 17 -24 31 -5 24 8 -3 13 3 13 14 0 11 0 19 -1 19 0 0 -16 -15 -35 -32z"/>
<path d="M4622 4140 c0 -14 2 -19 5 -12 2 6 2 18 0 25 -3 6 -5 1 -5 -13z"/>
<path d="M2719 3413 c-13 -16 -12 -17 4 -4 16 13 21 21 13 21 -2 0 -10 -8 -17
-17z"/>
<path d="M2679 3383 c-13 -16 -12 -17 4 -4 16 13 21 21 13 21 -2 0 -10 -8 -17
-17z"/>
<path d="M2586 3293 c-6 -14 -5 -15 5 -6 7 7 10 15 7 18 -3 3 -9 -2 -12 -12z"/>
<path d="M2945 3243 c-32 -8 -84 -51 -100 -83 -8 -16 -15 -51 -15 -77 0 -121
124 -191 232 -131 102 57 109 190 15 262 -33 25 -95 39 -132 29z"/>
<path d="M3363 2922 c-19 -34 -25 -94 -10 -108 3 -3 4 11 2 33 -2 25 4 49 17
71 11 18 18 35 16 37 -2 3 -14 -12 -25 -33z"/>
<path d="M3531 2774 c0 -11 3 -14 6 -6 3 7 2 16 -1 19 -3 4 -6 -2 -5 -13z"/>
<path d="M3120 2440 c0 -5 5 -10 11 -10 5 0 7 5 4 10 -3 6 -8 10 -11 10 -2 0
-4 -4 -4 -10z"/>
</g>
</svg>
